<mxfile host="app.diagrams.net" modified="2024-04-02T05:40:14.627Z" agent="Mozilla/5.0 (Windows NT 10.0; Win64; x64) AppleWebKit/537.36 (KHTML, like Gecko) Chrome/123.0.0.0 Safari/537.36 Edg/123.0.0.0" version="24.2.1" etag="DlyJOY0rnXIv7V3mfQJV" type="github">
  <diagram name="Page-1" id="pNUMxkkFMWkJWcdODyrL">
    <mxGraphModel>
      <root>
        <mxCell id="0" />
        <mxCell id="1" parent="0" />
      </root>
    </mxGraphModel>
  </diagram>
</mxfile>
